<?xml version="1.0" encoding="utf-8"?>
<!-- Generator: Adobe Illustrator 26.0.0, SVG Export Plug-In . SVG Version: 6.00 Build 0)  -->
<svg version="1.1" id="Layer_1" xmlns="http://www.w3.org/2000/svg" xmlns:xlink="http://www.w3.org/1999/xlink" x="0px" y="0px"
	 viewBox="0 0 335 166" style="enable-background:new 0 0 335 166;" xml:space="preserve">
<style type="text/css">
	.st0{fill:#34BC85;}
	.st1{fill:#0F5156;}
</style>
<path class="st0" d="M70.2,50.3c0,8-6.5,14.5-14.5,14.5c-8,0-14.5-6.5-14.5-14.5c0-8,6.5-14.5,14.5-14.5
	C63.7,35.8,70.2,42.3,70.2,50.3z"/>
<path class="st0" d="M47.8,114.3C21.4,114.3,0,92.9,0,66.4v-23c26.4,0,47.8,21.4,47.8,47.8L47.8,114.3z"/>
<path class="st0" d="M100.5,58.8c-26.4,0-47.8,21.4-47.8,47.8v23c26.4,0,47.8-21.4,47.8-47.8V58.8z"/>
<path class="st1" d="M188.9,50.1v57.6h-11.6V70.2L162,107.7h-8.7l-15.5-37.5v37.5h-11.6V50.1h13.1l18.3,42.8l18.3-42.8H188.9z"/>
<path class="st1" d="M202.9,56.5c-2,0-3.7-0.6-5.1-1.9c-1.3-1.3-2-2.9-2-4.9c0-1.9,0.7-3.5,2-4.8c1.4-1.3,3.1-2,5.1-2
	c2,0,3.7,0.7,5,2c1.4,1.3,2.1,2.9,2.1,4.8c0,1.9-0.7,3.5-2.1,4.9C206.6,55.9,205,56.5,202.9,56.5z M208.6,62v45.7h-11.6V62H208.6z"
	/>
<path class="st1" d="M242.1,61.3c5.4,0,9.8,1.7,13.2,5.2c3.4,3.4,5,8.2,5,14.4v26.8h-11.6V82.4c0-3.6-0.9-6.4-2.7-8.3
	c-1.8-2-4.3-3-7.4-3c-3.2,0-5.7,1-7.6,3c-1.8,1.9-2.7,4.7-2.7,8.3v25.3h-11.6V62h11.6v5.7c1.5-2,3.5-3.5,5.9-4.6
	C236.6,61.9,239.2,61.3,242.1,61.3z"/>
<path class="st1" d="M281.4,71.5v22.1c0,1.5,0.4,2.7,1.1,3.4c0.8,0.7,2,1,3.8,1h5.4v9.7h-7.3c-9.7,0-14.6-4.7-14.6-14.2v-22h-8.6V62
	h8.6V50.7h11.6V62V71.5z"/>
<path class="st1" d="M335,62l-28.3,67.3h-12.3l9.9-22.8L286,62h13l11.8,31.9l12-31.9H335z"/>
</svg>
