<svg width="335" height="166" viewBox="0 0 335 166" fill="none" xmlns="http://www.w3.org/2000/svg">
<path d="M99.8501 60.1204C99.8501 65.7098 95.3191 70.2408 89.7297 70.2408C84.1404 70.2408 79.6093 65.7098 79.6093 60.1204C79.6093 54.5311 84.1404 50 89.7297 50C95.3191 50 99.8501 54.5311 99.8501 60.1204Z" fill="#34BC85"/>
<path d="M84.2745 104.666C65.8651 104.666 50.9414 89.7427 50.9414 71.3334V55.3335C69.3508 55.3335 84.2753 70.2572 84.2753 88.6666L84.2745 104.666Z" fill="#34BC85"/>
<path d="M120.941 66C102.532 66 87.6083 80.9237 87.6083 99.3331V115.333C106.018 115.333 120.941 100.409 120.941 81.9999V66Z" fill="#34BC85"/>
<path d="M182.576 59.9446V100.077H174.527V73.9735L163.775 100.077H157.681L146.872 73.9735V100.077H138.822V59.9446H147.964L160.728 89.7848L173.492 59.9446H182.576Z" fill="#0F5156"/>
<path d="M192.317 64.4293C190.899 64.4293 189.71 63.9885 188.752 63.1069C187.832 62.1869 187.372 61.0562 187.372 59.7146C187.372 58.3731 187.832 57.2615 188.752 56.3799C189.71 55.46 190.899 55 192.317 55C193.735 55 194.904 55.46 195.824 56.3799C196.782 57.2615 197.262 58.3731 197.262 59.7146C197.262 61.0562 196.782 62.1869 195.824 63.1069C194.904 63.9885 193.735 64.4293 192.317 64.4293ZM196.284 68.224V100.077H188.235V68.224H196.284Z" fill="#0F5156"/>
<path d="M219.588 67.764C223.383 67.764 226.449 68.9714 228.788 71.3862C231.126 73.7627 232.295 77.0975 232.295 81.3905V100.077H224.245V82.4829C224.245 79.9531 223.613 78.0174 222.348 76.6758C221.083 75.2959 219.358 74.606 217.173 74.606C214.95 74.606 213.187 75.2959 211.884 76.6758C210.619 78.0174 209.987 79.9531 209.987 82.4829V100.077H201.937V68.224H209.987V72.1912C211.06 70.8113 212.421 69.738 214.069 68.9714C215.755 68.1665 217.595 67.764 219.588 67.764Z" fill="#0F5156"/>
<path d="M247.021 74.836V90.2448C247.021 91.318 247.27 92.1038 247.769 92.6021C248.305 93.0621 249.187 93.2921 250.414 93.2921H254.151V100.077H249.091C242.307 100.077 238.914 96.7801 238.914 90.1873V74.836H232.941V68.224H238.914V60.3471H247.021V68.224V74.836Z" fill="#0F5156"/>
<path d="M284.33 68.224L264.609 115.14H256.042L262.941 99.2716L250.177 68.224H259.204L267.426 90.4748L275.763 68.224H284.33Z" fill="#0F5156"/>
</svg>
